<?xml version="1.0" standalone="no"?><!DOCTYPE svg PUBLIC "-//W3C//DTD SVG 20010904//EN" "http://www.w3.org/TR/2001/REC-SVG-20010904/DTD/svg10.dtd"><svg xmlns="http://www.w3.org/2000/svg" version="1.0" width="496.000000pt" height="401.000000pt" viewBox="0 0 496.000000 401.000000" preserveAspectRatio="xMidYMid meet">

<g transform="translate(0.000000,401.000000) scale(0.100000,-0.100000)" fill="#00897b" stroke="none">
<path d="M2050 3288 c-85 -49 -292 -169 -460 -266 -168 -96 -313 -180 -323 -187 -19 -13 -38 0 388 -245 99 -57 182 -104 183 -106 2 -1 3 -113 3 -247 l-2 -245 30 -25 c113 -95 643 -135 1007 -77 145 23 215 45 250 77 l24 22 0 253 c0 139 4 258 8 263 4 6 21 17 37 26 17 8 54 28 83 44 28 15 55 25 58 22 4 -3 6 -91 5 -194 -2 -152 -5 -189 -17 -196 -25 -14 -42 -60 -33 -92 6 -22 1 -50 -22 -117 -16 -49 -27 -93 -24 -98 13 -20 69 -42 114 -43 43 -2 113 22 125 42 3 5 -8 45 -24 91 -24 64 -29 92 -25 128 6 50 -3 70 -43 91 -22 12 -22 13 -20 218 l3 205 75 44 c41 24 114 65 162 91 48 27 86 52 84 58 -1 5 -126 81 -277 167 -316 181 -413 237 -560 325 -59 35 -110 63 -113 63 -3 0 -6 -53 -6 -118 l0 -118 78 -44 c42 -24 109 -62 147 -85 39 -23 125 -73 193 -110 67 -38 122 -74 122 -80 0 -9 -98 -67 -442 -263 l-98 -56 0 -118 c0 -65 3 -118 6 -118 3 0 68 36 145 81 76 44 143 78 149 74 13 -8 13 -310 0 -336 -27 -49 -221 -102 -405 -109 -152 -6 -188 -6 -317 6 -243 22 -351 60 -361 126 -7 47 -1 277 7 285 7 7 94 -37 184 -94 29 -18 57 -31 61 -29 14 9 13 222 -1 233 -11 9 -103 63 -259 152 -238 136 -269 156 -267 169 2 7 14 20 28 27 225 127 487 279 495 286 11 10 16 239 6 239 -3 -1 -76 -42 -161 -92z"/>
<path d="M2644 3290 c-17 -36 -57 -121 -89 -190 -31 -69 -81 -176 -111 -239 -30 -62 -54 -115 -54 -118 0 -2 -14 -32 -31 -66 -65 -129 -79 -179 -77 -277 1 -49 4 -90 8 -90 4 0 13 15 21 33 14 34 52 117 203 441 25 54 46 99 46 101 0 2 22 50 48 107 74 158 73 155 70 264 l-3 99 -31 -65z"/>
<path d="M920 1570 c-20 -5 -49 -24 -67 -44 l-33 -36 0 -155 c0 -174 7 -201 63 -235 18 -11 47 -20 66 -20 65 0 131 68 131 134 0 23 -4 26 -35 26 -30 0 -35 -3 -35 -23 0 -35 -27 -67 -58 -67 -60 0 -69 26 -68 187 1 109 4 135 18 149 37 38 108 7 108 -48 0 -26 3 -28 36 -28 l37 0 -7 41 c-9 54 -40 98 -82 115 -18 8 -35 14 -36 13 -2 -1 -19 -5 -38 -9z"/>
<path d="M1244 1569 c-38 -11 -82 -53 -91 -88 -4 -14 -7 -89 -7 -166 -1 -156 6 -178 67 -215 59 -36 143 -15 175 44 25 46 25 317 -1 363 -27 50 -90 77 -143 62z m71 -84 c24 -23 25 -29 25 -157 0 -158 -9 -181 -68 -176 -53 4 -62 29 -62 176 0 129 7 157 43 172 32 13 36 12 62 -15z"/>
<path d="M2820 1569 c-21 -4 -48 -22 -67 -43 -61 -66 -39 -164 47 -216 97 -59 105 -66 108 -94 4 -35 -23 -66 -58 -66 -33 0 -60 28 -60 63 0 24 -4 27 -35 27 -33 0 -35 -2 -35 -32 0 -64 65 -128 130 -128 135 0 179 193 56 245 -17 7 -50 27 -73 44 -36 26 -43 37 -43 64 1 55 36 81 87 63 22 -7 29 -23 35 -76 2 -20 9 -26 36 -28 31 -3 32 -3 32 38 0 93 -74 157 -160 139z"/>
<path d="M1485 1559 c-3 -8 -4 -118 -3 -244 l3 -230 82 0 c67 1 88 5 110 21 60 45 63 57 66 216 2 160 -2 174 -66 222 -34 25 -183 37 -192 15z m177 -89 c15 -18 17 -43 17 -147 0 -119 -1 -126 -25 -149 -19 -20 -33 -24 -62 -22 l-37 3 -3 160 c-1 87 0 166 3 173 8 22 85 9 107 -18z"/>
<path d="M1824 1555 c-3 -6 -3 -114 -2 -240 l3 -230 33 -3 32 -3 -2 243 -3 243 -29 0 c-15 1 -30 -4 -32 -10z"/>
<path d="M1977 1564 c-4 -4 -7 -115 -7 -246 l0 -239 32 3 33 3 0 119 c0 71 4 121 10 123 6 1 37 -52 70 -120 47 -96 65 -123 82 -125 l22 -3 3 240 3 240 -23 6 c-13 3 -27 3 -32 0 -6 -4 -10 -66 -10 -141 0 -74 -4 -134 -8 -134 -7 0 -28 44 -95 200 -23 54 -38 76 -53 78 -11 2 -23 0 -27 -4z"/>
<path d="M2371 1557 c-13 -6 -34 -25 -45 -40 -19 -25 -21 -45 -24 -176 -4 -169 5 -208 60 -241 60 -37 135 -20 178 39 18 26 20 42 18 108 l-3 78 -55 -1 c-54 -1 -55 -2 -58 -32 -3 -25 1 -31 20 -34 18 -2 24 -10 26 -39 2 -30 -2 -41 -23 -57 -27 -22 -47 -20 -77 6 -16 13 -18 34 -18 158 0 140 0 143 25 162 43 34 94 6 95 -51 0 -26 3 -28 33 -25 29 3 32 6 35 41 3 33 -2 43 -36 78 -34 34 -46 39 -83 39 -24 0 -55 -6 -68 -13z"/>
<path d="M3104 1558 c-6 -10 -69 -346 -80 -425 l-7 -53 31 0 c24 0 31 5 34 23 3 19 10 22 61 25 54 3 58 1 67 -23 8 -21 16 -26 38 -23 17 2 26 8 25 18 -10 84 -77 447 -83 454 -11 11 -79 15 -86 4z m60 -180 c4 -24 12 -72 18 -107 12 -72 7 -81 -44 -75 -17 2 -33 5 -34 7 -4 3 23 172 31 198 10 32 23 21 29 -23z"/>
<path d="M3292 1562 c-9 -7 -2 -60 35 -243 l48 -234 37 -3 36 -3 16 73 c41 186 83 408 77 409 -59 13 -61 10 -86 -141 -22 -140 -34 -185 -46 -173 -5 5 -20 74 -34 154 -14 79 -27 150 -30 157 -5 14 -33 16 -53 4z"/>
<path d="M3590 1544 c0 -19 69 -371 87 -442 5 -20 11 -23 42 -20 l36 3 47 230 c26 127 47 235 48 241 0 11 -53 14 -63 4 -3 -3 -17 -75 -31 -160 -15 -85 -29 -156 -32 -159 -11 -12 -23 27 -44 153 -29 166 -33 176 -65 174 -18 -2 -25 -8 -25 -24z"/>
<path d="M3895 1560 c-3 -5 13 -65 37 -132 36 -107 43 -138 48 -233 l5 -110 30 0 30 0 6 120 c5 107 10 132 47 237 23 65 42 120 42 122 0 2 -15 3 -32 1 -32 -2 -33 -4 -54 -83 -32 -118 -46 -131 -64 -59 -37 139 -41 147 -65 147 -13 0 -27 -4 -30 -10z"/>
<path d="M987 933 c-9 -8 -9 -166 -1 -187 10 -25 118 -22 144 4 21 21 27 74 10 85 -5 3 -7 19 -4 34 9 45 -23 71 -89 71 -30 0 -57 -3 -60 -7z m111 -38 c13 -13 -11 -35 -37 -35 -33 0 -46 13 -37 37 5 11 14 14 38 9 17 -3 34 -8 36 -11z m7 -79 c32 -23 12 -46 -40 -46 -40 0 -45 2 -45 23 0 13 3 27 7 30 11 12 58 8 78 -7z"/>
<path d="M1822 924 c-30 -21 -30 -69 1 -88 12 -8 37 -17 55 -21 23 -5 32 -12 30 -23 -4 -20 -55 -29 -71 -13 -13 13 -47 14 -47 2 0 -18 53 -51 81 -51 15 0 40 10 55 23 36 31 28 69 -18 87 -69 25 -78 30 -78 39 0 20 39 32 61 21 11 -7 28 -9 37 -5 15 6 14 9 -7 26 -28 23 -69 25 -99 3z"/>
<path d="M2968 911 c-28 -25 -33 -36 -33 -74 0 -34 6 -52 24 -71 29 -31 83 -43 118 -27 38 17 23 37 -26 33 -30 -3 -48 1 -62 14 -25 22 -25 75 0 98 19 18 69 24 89 12 19 -12 26 17 7 31 -32 23 -81 16 -117 -16z"/>
<path d="M3480 910 c0 -26 -3 -30 -29 -30 -43 0 -60 -9 -76 -40 -11 -22 -12 -35 -4 -59 19 -53 67 -66 113 -30 24 19 26 26 26 105 0 68 -3 84 -15 84 -10 0 -15 -10 -15 -30z m-16 -76 c31 -30 8 -69 -36 -62 -30 4 -38 46 -12 65 23 17 29 16 48 -3z"/>
<path d="M3952 868 c2 -46 7 -73 16 -76 9 -3 12 16 12 72 0 62 -3 76 -15 76 -13 0 -15 -12 -13 -72z"/>
<path d="M1240 860 c-46 -46 -7 -136 56 -128 35 4 39 32 7 36 -31 4 -29 14 7 40 17 13 30 31 30 41 0 35 -68 43 -100 11z m60 -17 c0 -10 -32 -43 -42 -43 -13 0 -9 17 8 34 16 16 34 21 34 9z"/>
<path d="M1529 870 c-9 -5 -22 -23 -29 -39 -22 -54 23 -99 98 -99 l42 1 0 53 c0 41 -5 59 -20 74 -21 21 -64 26 -91 10z m66 -33 c13 -10 16 -21 11 -40 -5 -22 -12 -27 -36 -27 -24 0 -31 5 -36 27 -5 19 -2 30 11 40 11 7 22 13 25 13 3 0 14 -6 25 -13z"/>
<path d="M2030 858 c-29 -32 -27 -81 6 -107 20 -16 38 -20 73 -18 l46 3 3 47 c3 39 -1 51 -22 72 -32 32 -78 33 -106 3z m85 -54 c0 -23 -5 -30 -23 -32 -44 -6 -67 32 -37 62 24 24 60 6 60 -30z"/>
<path d="M2220 849 c0 -34 53 -119 74 -119 20 0 68 79 70 114 1 38 -27 44 -32 7 -2 -14 -11 -35 -19 -48 -20 -30 -39 -16 -53 38 -13 48 -40 53 -40 8z"/>
<path d="M2430 849 c0 -34 53 -119 74 -119 20 0 68 79 70 114 1 38 -27 44 -32 7 -2 -14 -11 -35 -19 -48 -20 -30 -38 -17 -55 38 -14 47 -38 52 -38 8z"/>
<path d="M2640 825 c0 -65 22 -95 71 -95 19 0 28 -4 23 -11 -4 -7 -21 -9 -45 -5 -21 3 -40 2 -43 -2 -9 -15 11 -33 45 -38 26 -4 41 0 62 16 26 20 27 26 27 106 0 67 -3 84 -15 84 -15 0 -22 -20 -27 -75 -2 -23 -9 -31 -27 -33 -30 -5 -41 12 -41 66 0 31 -4 42 -15 42 -12 0 -15 -13 -15 -55z"/>
<path d="M3187 868 c-24 -19 -36 -59 -25 -87 29 -80 138 -61 138 24 0 61 -66 98 -113 63z m68 -31 c13 -10 16 -21 11 -41 -6 -24 -11 -27 -39 -24 -25 2 -33 8 -35 27 -3 15 3 30 14 38 22 16 26 16 49 0z"/>
<path d="M3600 860 c-30 -30 -27 -83 7 -110 32 -25 76 -23 81 3 3 12 -3 17 -22 17 -34 0 -33 11 4 38 17 13 30 31 30 41 0 35 -68 43 -100 11z m60 -21 c0 -12 -29 -38 -42 -39 -13 0 -9 18 8 34 18 19 34 21 34 5z"/>
<path d="M3791 861 c-16 -16 -21 -34 -21 -77 0 -69 22 -70 30 -1 7 54 12 61 48 62 40 0 36 29 -5 33 -22 2 -38 -3 -52 -17z"/>
<path d="M3950 750 c0 -15 5 -20 18 -18 9 2 17 10 17 18 0 8 -8 16 -17 18 -13 2 -18 -3 -18 -18z"/>
</g>
</svg>